PathFileType  4	(X/Y/Z)
DataRate	CameraRate	NumFrames	NumMarkers	Units	OrigDataRate	OrigDataStartFrame	OrigNumFrames
	100.0 	100.0	9	50	mm	100.0	100	265
Frame#	Time	R.Shoulder			R.Clavicle			R.Bicep			R.Elbow			R.Forearm			R.Wrist			L.Shoulder			L.Clavicle			L.Scapula			L.Bicep			L.Elbow			L.Forearm			L.Wrist			R.ASIS			R.Iliac			S2			L.Iliac			L.ASIS			R.TH1			R.TH2			R.TH3			R.Knee			R.SH1			R.SH2			R.SH3			R.SH4			R.Ankle			R.Heel			R.MT5			L.TH1			L.TH2			L.TH3			L.TH4			L.Knee			L.SH1			L.SH2			L.SH3			L.Ankle			L.Heel			L.MT5			R.MKnee			L.MKnee			R.MAnkle			L.MAnkle			R.MElbow			L.MElbow			R.PSIS			L.PSIS			R_HJC			L_HJC			
		X1	Y1	Z1	X2	Y2	Z2	X3	Y3	Z3	X4	Y4	Z4	X5	Y5	Z5	X6	Y6	Z6	X7	Y7	Z7	X8	Y8	Z8	X9	Y9	Z9	X10	Y10	Z10	X11	Y11	Z11	X12	Y12	Z12	X13	Y13	Z13	X14	Y14	Z14	X15	Y15	Z15	X16	Y16	Z16	X17	Y17	Z17	X18	Y18	Z18	X19	Y19	Z19	X20	Y20	Z20	X21	Y21	Z21	X22	Y22	Z22	X23	Y23	Z23	X24	Y24	Z24	X25	Y25	Z25	X26	Y26	Z26	X27	Y27	Z27	X28	Y28	Z28	X29	Y29	Z29	X30	Y30	Z30	X31	Y31	Z31	X32	Y32	Z32	X33	Y33	Z33	X34	Y34	Z34	X35	Y35	Z35	X36	Y36	Z36	X37	Y37	Z37	X38	Y38	Z38	X39	Y39	Z39	X40	Y40	Z40	X41	Y41	Z41	X42	Y42	Z42	X43	Y43	Z43	X44	Y44	Z44	X45	Y45	Z45	X46	Y46	Z46	X47	Y47	Z47	X48	Y48	Z48	X49	Y49	Z49	X50	Y50	Z50	

100	0.99000	265.901	6.650	1423.136	328.424	166.725	1412.035	288.485	-6.402	1247.304	213.844	-49.086	1110.931	311.383	-42.089	993.922	315.211	-80.662	889.913	213.762	393.387	1428.817	332.381	232.339	1414.728	124.491	251.892	1313.188	256.246	399.756	1259.320	177.586	426.627	1121.526	259.690	440.640	1008.277	248.383	465.332	888.906	353.595	49.560	958.947	259.785	34.478	1045.289	173.870	201.802	990.966	279.513	358.264	1037.882	371.421	327.081	952.123	366.996	71.570	718.111	352.656	81.741	633.087	239.270	-12.409	640.745	221.104	19.113	496.533	275.454	49.539	360.709	268.257	51.954	287.101	174.893	-5.667	366.910	165.928	-1.123	292.857	209.089	34.229	99.961	144.946	95.472	54.354	333.035	4.714	35.725	369.699	348.215	745.566	364.865	337.407	661.872	227.239	397.648	750.153	223.957	385.122	662.859	233.426	359.987	501.439	263.970	353.923	378.064	263.526	354.535	302.497	149.395	364.464	301.060	211.532	350.108	94.910	149.521	283.934	42.412	324.144	386.794	35.269	216.043	168.925	500.013	235.834	211.259	501.935	246.853	129.635	116.272	242.116	256.483	109.949	230.289	57.192	1091.657	234.813	327.059	1100.030	173.631	150.473	1006.349	181.905	250.816	1003.211	272.619	89.066	871.381	282.732	298.577	866.661
101	1.00000	265.890	6.632	1423.071	328.424	166.725	1412.035	288.485	-6.402	1247.304	213.844	-49.086	1110.931	311.544	-41.749	993.890	315.533	-79.726	889.525	213.416	393.541	1428.904	332.227	232.347	1414.626	124.646	251.939	1313.226	256.246	399.756	1259.320	177.591	426.526	1121.450	259.871	440.591	1008.330	248.566	465.258	888.842	353.445	49.634	959.187	259.785	34.478	1045.289	173.870	201.802	990.966	279.513	358.264	1037.882	371.330	327.064	952.176	366.978	71.654	718.217	352.509	81.669	633.108	239.077	-12.267	640.574	221.048	19.279	496.549	275.371	49.416	360.796	268.257	51.954	287.101	174.861	-5.706	366.858	165.950	-1.286	292.752	209.222	34.288	99.944	144.784	95.477	54.059	333.153	4.798	35.794	370.175	348.410	745.785	364.865	337.407	661.872	227.337	397.701	750.067	224.172	385.174	662.584	233.426	359.987	501.439	263.970	353.923	378.064	263.737	354.532	302.571	149.395	364.464	301.060	211.545	349.945	94.886	149.633	283.869	42.387	324.144	386.794	35.269	216.043	168.925	500.013	235.834	211.259	501.935	246.771	129.746	116.403	242.400	256.498	109.704	230.289	57.192	1091.657	234.817	326.963	1099.893	173.631	150.473	1006.349	182.247	250.591	1003.160	272.687	89.006	871.453	282.809	298.515	866.678
102	1.01000	265.951	6.743	1423.104	328.424	166.725	1412.035	288.485	-6.402	1247.304	213.844	-49.086	1110.931	311.530	-41.613	993.944	315.790	-79.469	889.616	213.190	393.552	1428.887	332.227	232.347	1414.626	124.491	251.892	1313.188	256.246	399.756	1259.320	177.568	426.388	1121.415	259.529	440.478	1008.193	248.330	465.053	888.883	353.445	49.634	959.187	259.785	34.478	1045.289	173.870	201.802	990.966	279.700	358.470	1037.946	371.376	326.950	952.049	367.037	71.500	718.216	352.503	81.720	633.130	239.136	-12.330	640.520	220.897	19.081	496.636	275.433	49.450	360.689	268.257	51.954	287.101	174.807	-5.602	366.852	165.933	-1.234	292.784	209.222	34.288	99.944	144.799	95.313	54.365	333.153	4.798	35.794	370.126	348.376	745.848	365.060	337.277	661.831	227.337	397.701	750.067	224.172	385.174	662.584	233.417	360.176	501.455	263.970	353.923	378.064	263.757	354.543	302.495	149.456	364.264	300.928	211.636	349.972	94.926	149.447	283.929	42.290	324.248	386.823	35.383	216.043	168.925	500.013	236.167	211.367	502.018	246.903	129.589	116.405	242.116	256.483	109.949	230.289	57.192	1091.657	234.817	326.963	1099.893	173.631	150.473	1006.349	181.905	250.816	1003.211	272.587	89.029	871.459	282.770	298.535	866.652
103	1.02000	265.951	6.743	1423.104	328.541	166.745	1412.152	288.485	-6.402	1247.304	213.844	-49.086	1110.931	311.447	-41.598	994.068	315.790	-79.469	889.616	213.205	393.623	1428.827	332.383	232.500	1414.687	124.455	251.914	1313.097	256.246	399.756	1259.320	177.532	426.313	1121.362	259.406	440.290	1008.101	248.200	464.941	888.828	353.445	49.634	959.187	259.785	34.478	1045.289	173.870	201.802	990.966	279.905	358.645	1037.926	371.088	326.969	951.970	367.037	71.500	718.216	352.637	81.668	633.177	239.211	-12.346	640.800	220.897	19.081	496.636	275.874	49.394	360.777	268.257	51.954	287.101	175.180	-5.589	366.755	165.964	-1.154	292.820	209.027	34.290	100.030	144.719	95.349	54.198	333.153	4.798	35.794	370.126	348.376	745.848	364.878	337.346	661.762	227.435	397.783	750.135	224.172	385.174	662.584	233.478	360.039	501.391	263.970	353.923	378.064	263.749	354.621	302.483	149.422	364.412	300.938	211.705	349.970	94.997	149.447	283.929	42.290	324.144	386.794	35.269	216.043	168.925	500.013	235.941	211.337	502.057	246.950	129.522	116.374	242.116	256.483	109.949	230.289	57.192	1091.657	234.885	326.994	1099.738	173.549	150.576	1006.281	181.601	251.404	1003.473	272.386	89.152	871.459	282.610	298.655	866.642
104	1.03000	265.901	6.650	1423.136	328.539	167.103	1412.126	288.485	-6.402	1247.304	213.844	-49.086	1110.931	311.447	-41.598	994.068	316.029	-79.464	889.771	213.217	393.523	1428.775	332.326	232.623	1414.520	124.455	251.914	1313.097	256.246	399.756	1259.320	177.459	426.294	1121.307	259.293	440.022	1008.165	248.156	464.855	888.729	353.445	49.634	959.187	259.785	34.478	1045.289	173.870	201.802	990.966	279.538	358.501	1037.874	371.187	326.995	951.919	367.037	71.500	718.216	352.656	81.741	633.087	239.136	-12.330	640.520	221.104	19.113	496.533	275.896	49.373	360.659	268.257	51.954	287.101	175.394	-5.741	366.585	166.313	-1.173	292.652	209.034	34.323	100.094	144.697	95.249	54.051	333.153	4.798	35.794	370.203	348.534	745.887	364.889	337.454	661.893	227.337	397.701	750.067	224.172	385.174	662.584	233.478	360.039	501.391	263.903	353.879	378.067	263.749	354.585	302.445	149.433	364.386	300.990	211.750	349.907	94.900	149.516	283.980	42.391	324.144	386.794	35.269	216.043	168.925	500.013	235.834	211.259	501.935	246.963	129.441	116.394	242.488	256.529	109.826	230.499	57.207	1091.772	234.723	326.789	1099.580	173.549	150.576	1006.281	181.424	251.317	1003.521	272.397	89.118	871.464	282.526	298.625	866.630
105	1.04000	265.793	6.814	1423.127	328.539	167.103	1412.126	288.485	-6.402	1247.304	213.844	-49.086	1110.931	311.460	-41.474	993.903	316.029	-79.464	889.771	213.012	393.572	1428.880	332.326	232.623	1414.520	124.200	252.175	1313.403	256.068	399.628	1259.202	177.459	426.294	1121.307	259.293	440.022	1008.165	248.156	464.855	888.729	353.453	49.744	959.014	259.785	34.478	1045.289	173.870	201.802	990.966	279.189	358.326	1037.739	370.652	327.113	952.140	366.978	71.654	718.217	352.656	81.741	633.087	239.142	-12.363	640.715	221.365	19.158	496.523	275.963	49.422	360.596	268.257	51.954	287.101	175.424	-5.843	366.600	166.692	-1.282	292.781	209.034	34.323	100.094	144.784	95.477	54.059	333.153	4.798	35.794	369.651	348.181	745.629	364.889	337.454	661.893	227.337	397.701	750.067	224.172	385.174	662.584	233.478	360.039	501.391	263.970	353.923	378.064	263.749	354.585	302.445	149.628	364.313	300.945	211.564	350.025	94.861	149.516	283.980	42.391	324.248	386.823	35.383	216.043	168.925	500.013	236.167	211.367	502.018	247.095	129.284	116.396	242.116	256.483	109.949	230.289	57.192	1091.657	234.655	326.758	1099.734	173.549	150.576	1006.281	181.424	251.317	1003.521	272.369	89.193	871.408	282.279	298.712	866.655
106	1.05000	266.097	6.862	1423.180	328.735	167.311	1412.134	288.364	-6.286	1247.192	213.844	-49.086	1110.931	311.578	-41.578	994.019	315.799	-79.611	889.694	213.027	393.643	1428.819	332.326	232.623	1414.520	124.143	252.191	1313.307	256.246	399.756	1259.320	177.534	426.303	1121.256	259.293	440.022	1008.165	248.156	464.855	888.729	353.917	49.662	959.047	259.785	34.478	1045.289	173.870	201.802	990.966	279.189	358.326	1037.739	370.626	327.266	952.244	366.791	71.706	718.164	352.653	81.619	633.152	239.201	-12.426	640.661	221.418	19.575	496.388	275.955	49.329	360.439	268.375	51.978	287.062	175.424	-5.843	366.600	166.692	-1.282	292.781	209.034	34.323	100.094	144.493	94.996	54.296	332.709	4.680	35.752	370.212	348.556	745.906	364.889	337.454	661.893	227.337	397.701	750.067	224.172	385.174	662.584	233.557	360.042	501.444	263.970	353.923	378.064	263.529	354.433	302.374	149.605	364.435	301.007	211.628	350.107	94.741	149.516	283.980	42.391	324.144	386.794	35.269	216.043	168.925	500.013	235.834	211.259	501.935	247.095	129.284	116.396	242.488	256.529	109.826	230.289	57.192	1091.657	234.723	326.789	1099.580	173.476	150.591	1006.187	181.424	251.317	1003.521	272.586	89.226	871.418	282.384	298.752	866.692
107	1.06000	266.097	6.862	1423.180	328.432	167.177	1412.163	288.341	-6.088	1247.151	213.844	-49.086	1110.931	311.448	-41.529	993.998	315.799	-79.611	889.694	212.939	393.589	1428.742	332.169	232.859	1414.423	124.200	252.175	1313.403	256.068	399.628	1259.202	177.534	426.303	1121.256	259.165	439.849	1008.097	248.009	464.500	888.610	353.917	49.662	959.047	259.785	34.478	1045.289	173.870	201.802	990.966	279.189	358.326	1037.739	371.016	327.318	952.193	366.978	71.654	718.217	352.653	81.619	633.152	239.201	-12.426	640.661	221.806	19.074	496.512	276.332	49.535	360.480	268.382	52.085	286.977	175.424	-5.843	366.600	166.715	-1.469	292.765	209.089	34.229	99.961	144.573	95.142	54.140	332.681	4.694	35.513	370.126	348.376	745.848	364.889	337.454	661.893	227.337	397.701	750.067	224.007	385.022	662.631	233.616	360.081	501.423	263.970	353.923	378.064	263.593	354.426	302.425	149.523	364.400	300.929	211.628	350.107	94.741	149.447	283.929	42.290	324.144	386.794	35.269	216.296	168.968	500.002	235.834	211.259	501.935	246.996	129.209	116.320	242.488	256.529	109.826	230.499	57.207	1091.772	234.723	326.789	1099.580	173.407	150.499	1006.342	181.424	251.317	1003.521	272.602	89.205	871.442	282.460	298.728	866.699
108	1.07000	266.064	6.920	1423.100	328.725	167.218	1411.980	288.364	-6.286	1247.192	213.844	-49.086	1110.931	311.395	-41.558	993.927	315.792	-79.670	889.603	212.939	393.589	1428.742	332.178	232.984	1414.329	124.443	252.042	1313.258	256.007	399.686	1259.101	177.517	426.346	1121.205	258.965	439.887	1008.073	248.045	464.330	888.565	353.860	49.750	959.241	259.785	34.478	1045.289	173.870	201.802	990.966	279.189	358.326	1037.739	371.016	327.318	952.193	367.019	71.584	718.322	352.634	81.546	633.242	239.385	-12.406	640.852	221.969	19.337	496.454	276.405	49.417	360.376	268.382	52.085	286.977	175.430	-5.940	366.648	166.898	-1.562	292.671	209.089	34.229	99.961	144.697	95.249	54.051	332.795	4.613	35.698	369.699	348.215	745.566	364.876	337.515	662.003	227.337	397.701	750.067	224.007	385.022	662.631	233.557	360.042	501.444	263.970	353.923	378.064	263.593	354.426	302.425	149.523	364.400	300.929	211.479	350.242	94.952	149.447	283.929	42.290	324.144	386.794	35.269	216.536	168.923	500.144	235.834	211.259	501.935	246.996	129.209	116.320	242.488	256.529	109.826	230.289	57.192	1091.657	234.723	326.789	1099.580	173.285	150.508	1006.262	181.424	251.317	1003.521	272.636	89.191	871.489	282.502	298.712	866.706
